<svg width="44" height="44" viewBox="0 0 44 44" fill="none" xmlns="http://www.w3.org/2000/svg">
<path d="M23.4335 16.8904L31.3667 0.389727C31.4815 0.151422 31.7219 0 31.9864 0L43.069 0C43.3053 0 43.5249 0.121516 43.651 0.321578C43.7766 0.521641 43.7907 0.772406 43.6887 0.985273L33.1707 22.8627C33.0854 23.0397 32.9289 23.1719 32.7403 23.226C32.6785 23.2438 32.6147 23.2525 32.551 23.2525C32.4221 23.2525 32.2945 23.2163 32.1831 23.1461L23.6853 17.7694C23.3906 17.5826 23.2825 17.2046 23.4335 16.8904Z" fill="#FF4F19"/>
<path d="M37.9829 0L43.069 0C43.3053 0 43.5248 0.121516 43.651 0.321578C43.7766 0.521641 43.7907 0.772406 43.6886 0.985273L33.1707 22.8627C33.0854 23.0397 32.9289 23.1719 32.7403 23.226C32.6785 23.2438 32.6147 23.2525 32.551 23.2525C32.4221 23.2525 32.2945 23.2163 32.1831 23.1461L28.0978 20.5612L37.9829 0Z" fill="#E3001E"/>
<path d="M20.5665 16.8904L12.6335 0.389727C12.5187 0.151422 12.2783 0 12.0138 0L0.931209 0C0.694881 0 0.475311 0.121516 0.349154 0.321578C0.2236 0.521641 0.209506 0.772406 0.311514 0.985273L10.8295 22.8627C10.9147 23.0397 11.0712 23.1719 11.2599 23.226C11.3217 23.2438 11.3854 23.2525 11.4492 23.2525C11.5781 23.2525 11.7056 23.2163 11.8171 23.1461L20.3148 17.7694C20.6095 17.5826 20.7176 17.2046 20.5665 16.8904Z" fill="#FF4F19"/>
<path d="M6.01725 0L0.931209 0C0.694881 0 0.475311 0.121516 0.349154 0.321578C0.2236 0.521641 0.209506 0.772406 0.311514 0.985273L10.8295 22.8627C10.9147 23.0397 11.0712 23.1719 11.2599 23.226C11.3217 23.2438 11.3854 23.2525 11.4492 23.2525C11.5781 23.2525 11.7056 23.2163 11.8171 23.1461L15.9024 20.5612L6.01725 0Z" fill="#E3001E"/>
<path d="M22.0094 44C29.6033 44 35.7594 37.8439 35.7594 30.25C35.7594 22.6561 29.6033 16.5 22.0094 16.5C14.4155 16.5 8.2594 22.6561 8.2594 30.25C8.2594 37.8439 14.4155 44 22.0094 44Z" fill="#FFCD00"/>
<path d="M22.0094 44C25.8064 44 29.2439 42.4609 31.732 39.9727L12.2867 20.5273C9.79837 23.0155 8.2594 26.453 8.2594 30.25C8.2594 37.8439 14.4154 44 22.0094 44Z" fill="#FF9100"/>
<path d="M25.6046 37.0568C25.379 37.0568 25.152 37.0024 24.9426 36.8924L22.0093 35.3506L19.076 36.8924C18.5939 37.1451 18.0199 37.1032 17.5808 36.7839C17.1397 36.4636 16.9236 35.9312 17.0155 35.3945L17.5755 32.1288L15.2022 29.8163C14.8121 29.4356 14.6744 28.8777 14.8429 28.3597C15.0115 27.8418 15.4505 27.4708 15.9897 27.3922L19.2687 26.9159L20.7357 23.9447C20.9761 23.4565 21.4642 23.1531 22.0086 23.1528H22.0093C22.5545 23.1528 23.0425 23.4562 23.2836 23.9447L24.7499 26.9159L28.0283 27.3922C28.568 27.4708 29.0072 27.8417 29.1757 28.3597C29.3442 28.8777 29.2066 29.4356 28.8165 29.8159L26.4431 32.1288L27.0037 35.3945C27.0957 35.9312 26.8795 36.4636 26.4384 36.7839C26.1894 36.9649 25.898 37.0568 25.6046 37.0568ZM16.1622 28.8313L18.794 31.3964C18.9558 31.5545 19.0297 31.7821 18.9914 32.005L18.3703 35.6268L18.7564 36.2838L18.4368 35.6752L21.6897 33.9652C21.8897 33.8598 22.1287 33.8598 22.3288 33.9652L25.5817 35.6752L26.3263 35.5107L25.6488 35.6269L25.0271 32.0051C24.9889 31.7822 25.0627 31.5546 25.2245 31.3965L27.8564 28.8314L27.9296 28.0728L27.8309 28.7532L24.1947 28.2249C23.9705 28.1923 23.7771 28.0516 23.6771 27.8486L22.051 24.5534C22.051 24.5541 22.01 24.5537 21.9851 24.5534C21.9751 24.5534 21.9684 24.5534 21.9684 24.5534L20.3416 27.8489C20.2415 28.0516 20.0482 28.1923 19.824 28.2249L16.1878 28.7532L15.6822 29.3239L16.1622 28.8313Z" fill="white"/>
<path d="M33.0114 30.9375C32.8322 30.9375 32.6536 30.8616 32.5226 30.7381C32.3923 30.6075 32.3239 30.4286 32.3239 30.25C32.3239 30.0711 32.3923 29.8925 32.5226 29.7619C32.7771 29.5074 33.2376 29.5074 33.4921 29.7619C33.623 29.8925 33.6989 30.0711 33.6989 30.25C33.6989 30.4286 33.623 30.6075 33.4921 30.7381C33.3686 30.8616 33.19 30.9375 33.0114 30.9375Z" fill="white"/>
<path d="M22.0115 19.9375C21.8255 19.9375 21.6536 19.8616 21.5227 19.7381C21.3925 19.6075 21.324 19.4286 21.324 19.25C21.324 19.0711 21.3925 18.8925 21.5227 18.7619C21.7772 18.5074 22.2377 18.5074 22.4922 18.7619C22.6231 18.8925 22.699 19.0711 22.699 19.25C22.699 19.4286 22.6231 19.6075 22.4922 19.7381C22.3686 19.8616 22.19 19.9375 22.0115 19.9375Z" fill="white"/>
<path d="M14.2286 23.1618C14.0501 23.1618 13.8708 23.0859 13.7472 22.9554C13.6163 22.8318 13.5411 22.6529 13.5411 22.4743C13.5411 22.2887 13.6163 22.1097 13.7472 21.9862C13.995 21.7317 14.4622 21.7317 14.7167 21.9862C14.847 22.1168 14.9161 22.2887 14.9161 22.4743C14.9161 22.6529 14.8469 22.8318 14.7167 22.9554C14.5859 23.086 14.414 23.1618 14.2286 23.1618Z" fill="white"/>
<path d="M29.7867 38.7131C29.6082 38.7131 29.4289 38.6443 29.2986 38.5138C29.175 38.3899 29.0992 38.211 29.0992 38.0256C29.0992 37.8467 29.1751 37.6681 29.2986 37.5442C29.5598 37.283 30.0136 37.283 30.2748 37.5442C30.3984 37.668 30.4742 37.8467 30.4742 38.0256C30.4742 38.2109 30.3983 38.3828 30.2748 38.5138C30.144 38.6444 29.9654 38.7131 29.7867 38.7131Z" fill="white"/>
<path d="M29.7867 23.1618C29.6082 23.1618 29.4289 23.0859 29.2986 22.9624C29.175 22.8318 29.0992 22.6529 29.0992 22.4743C29.0992 22.2887 29.1751 22.1097 29.2986 21.9862C29.5531 21.7317 30.0136 21.7317 30.2748 21.9862C30.3984 22.1097 30.4742 22.2887 30.4742 22.4743C30.4742 22.6529 30.3983 22.8318 30.2748 22.9624C30.144 23.086 29.9654 23.1618 29.7867 23.1618Z" fill="white"/>
<path d="M32.1721 26.7299C31.9935 26.7299 31.815 26.6544 31.684 26.5235C31.5604 26.3999 31.4846 26.221 31.4846 26.0424C31.4846 25.8568 31.5605 25.6779 31.684 25.5543C31.9452 25.2998 32.399 25.2998 32.6602 25.5543C32.7843 25.6779 32.8595 25.8568 32.8595 26.0424C32.8595 26.221 32.7843 26.3999 32.6602 26.5235C32.53 26.6544 32.3507 26.7299 32.1721 26.7299Z" fill="white"/>
<path d="M17.7965 20.7761C17.6179 20.7761 17.4394 20.7006 17.3158 20.57C17.1849 20.4462 17.109 20.2675 17.109 20.0886C17.109 19.91 17.1849 19.7311 17.3158 19.6005C17.5695 19.346 18.0308 19.346 18.2845 19.6005C18.4154 19.7311 18.4839 19.903 18.4839 20.0886C18.4839 20.2675 18.4154 20.4461 18.2845 20.5767C18.1544 20.7006 17.9825 20.7761 17.7965 20.7761Z" fill="white"/>
<path d="M32.1721 35.1448C31.9935 35.1448 31.815 35.0763 31.684 34.9454C31.5604 34.8147 31.4846 34.6429 31.4846 34.4572C31.4846 34.2787 31.5605 34.0997 31.684 33.9762C31.9385 33.715 32.4057 33.715 32.6602 33.9762C32.7843 34.0997 32.8595 34.2787 32.8595 34.4572C32.8595 34.6429 32.7843 34.8147 32.6602 34.9454C32.53 35.0763 32.3507 35.1448 32.1721 35.1448Z" fill="white"/>
<path d="M26.2184 20.7761C26.0398 20.7761 25.8612 20.7006 25.7303 20.5767C25.6067 20.4461 25.5309 20.2675 25.5309 20.0886C25.5309 19.903 25.6068 19.7244 25.7303 19.6005C25.9847 19.346 26.4453 19.346 26.7064 19.6005C26.8306 19.7311 26.9058 19.903 26.9058 20.0886C26.9058 20.2675 26.8306 20.4461 26.7064 20.5767C26.5762 20.7006 26.3976 20.7761 26.2184 20.7761Z" fill="white"/>
<path d="M32.7911 28.7444C32.6052 28.7444 32.4266 28.6685 32.303 28.545C32.1721 28.4141 32.1036 28.2355 32.1036 28.0569C32.1036 27.878 32.1721 27.6994 32.303 27.5684C32.5575 27.3143 33.018 27.3143 33.2725 27.5684C33.4028 27.6993 33.4786 27.878 33.4786 28.0569C33.4786 28.2355 33.4027 28.414 33.2725 28.545C33.1484 28.6686 32.9697 28.7444 32.7911 28.7444Z" fill="white"/>
<path d="M19.818 20.1574C19.632 20.1574 19.4601 20.0819 19.3299 19.958C19.199 19.8274 19.1305 19.6555 19.1305 19.4699C19.1305 19.2913 19.199 19.1124 19.3299 18.9818C19.5843 18.7273 20.0449 18.7273 20.306 18.9818C20.4296 19.1124 20.5054 19.2913 20.5054 19.4699C20.5054 19.6485 20.4295 19.8274 20.306 19.958C20.1752 20.0819 19.9967 20.1574 19.818 20.1574Z" fill="white"/>
<path d="M31.1826 37.0079C31.0034 37.0079 30.8248 36.9323 30.6945 36.8088C30.5703 36.678 30.4951 36.5061 30.4951 36.3204C30.4951 36.1418 30.5703 35.9632 30.6945 35.8322C30.949 35.5781 31.4162 35.5781 31.6707 35.8322C31.7942 35.9631 31.87 36.1418 31.87 36.3204C31.87 36.506 31.7941 36.6779 31.6707 36.8088C31.5398 36.9323 31.3612 37.0079 31.1826 37.0079Z" fill="white"/>
<path d="M28.0814 21.766C27.9028 21.766 27.7243 21.6905 27.5933 21.5666C27.4697 21.436 27.3939 21.2574 27.3939 21.0785C27.3939 20.8929 27.4698 20.721 27.5933 20.5904C27.8478 20.3359 28.3157 20.3359 28.5628 20.5904C28.6936 20.7142 28.7688 20.8929 28.7688 21.0785C28.7688 21.2574 28.6936 21.436 28.5628 21.5666C28.4393 21.6905 28.2607 21.766 28.0814 21.766Z" fill="white"/>
<path d="M31.1274 24.7842C30.9489 24.7842 30.7696 24.7153 30.6393 24.5848C30.5151 24.461 30.4399 24.2823 30.4399 24.0967C30.4399 23.9181 30.5151 23.7392 30.6393 23.6086C30.9005 23.3541 31.3543 23.3541 31.6155 23.6086C31.7458 23.7392 31.8149 23.9181 31.8149 24.0967C31.8149 24.2823 31.7457 24.4609 31.6155 24.5848C31.4846 24.7154 31.3127 24.7842 31.1274 24.7842Z" fill="white"/>
<path d="M15.858 21.8144C15.6721 21.8144 15.5002 21.7455 15.3699 21.615C15.2457 21.4911 15.1705 21.3125 15.1705 21.1336C15.1705 20.9479 15.2457 20.7694 15.3699 20.6454C15.6244 20.391 16.0916 20.391 16.3461 20.6454C16.4696 20.7693 16.5454 20.9479 16.5454 21.1336C16.5454 21.3125 16.4696 21.4911 16.3461 21.615C16.2153 21.7455 16.0366 21.8144 15.858 21.8144Z" fill="white"/>
<path d="M32.8047 33.0342C32.6261 33.0342 32.4475 32.9654 32.3166 32.8348C32.193 32.7042 32.1172 32.5323 32.1172 32.3467C32.1172 32.1681 32.1931 31.9892 32.3166 31.8586C32.5777 31.6041 33.0316 31.6041 33.2927 31.8586C33.4236 31.9892 33.4921 32.1681 33.4921 32.3467C33.4921 32.5323 33.4236 32.7042 33.2927 32.8348C33.1625 32.9654 32.9907 33.0342 32.8047 33.0342Z" fill="white"/>
<path d="M24.108 20.1369C23.9221 20.1369 23.7502 20.068 23.6199 19.9375C23.4957 19.8069 23.4205 19.635 23.4205 19.4494C23.4205 19.2705 23.4957 19.0919 23.6199 18.968C23.8744 18.7068 24.3349 18.7068 24.5961 18.968C24.7196 19.0918 24.7954 19.2705 24.7954 19.4494C24.7954 19.635 24.7196 19.8136 24.5961 19.9375C24.4653 20.068 24.2866 20.1369 24.108 20.1369Z" fill="white"/>
<path d="M25.6046 37.0569C25.898 37.0569 26.1894 36.9649 26.4385 36.7839C26.8796 36.4636 27.0957 35.9312 27.0038 35.3945L26.9727 35.2133L25.2889 33.5295L25.6489 35.6268L26.3263 35.5106L25.5818 35.6751L22.3289 33.9651C22.1288 33.8596 21.8898 33.8596 21.6898 33.9651L18.4369 35.6751L18.7565 36.2837L18.3704 35.6267L18.9915 32.0048C19.0297 31.7819 18.9559 31.5544 18.7941 31.3962L16.1623 28.8312L15.6822 29.3236L16.1878 28.7529L19.824 28.2245C19.8677 28.2182 19.9089 28.2045 19.9498 28.1903L18.7505 26.9909L15.9897 27.392C15.4506 27.4705 15.0115 27.8414 14.8429 28.3595C14.6744 28.8775 14.8121 29.4354 15.2022 29.816L17.5755 32.1286L17.0155 35.3942C16.9236 35.931 17.1397 36.4634 17.5808 36.7837C18.0199 37.1029 18.5939 37.1449 19.076 36.8921L22.0093 35.3503L24.9426 36.8921C25.1522 37.0025 25.3791 37.0569 25.6046 37.0569Z" fill="#FFCD00"/>
<path d="M11.0115 30.9375C10.8322 30.9375 10.6536 30.8616 10.5227 30.7381C10.3991 30.6075 10.324 30.4286 10.324 30.25C10.324 30.0711 10.3992 29.8925 10.5227 29.7619C10.7771 29.5074 11.2377 29.5074 11.4921 29.7619C11.623 29.8925 11.6989 30.0711 11.6989 30.25C11.6989 30.4286 11.623 30.6075 11.4921 30.7381C11.3686 30.8616 11.1901 30.9375 11.0115 30.9375Z" fill="#FFCD00"/>
<path d="M22.0115 41.9375C21.8322 41.9375 21.6536 41.8616 21.5227 41.7381C21.3925 41.6075 21.324 41.4286 21.324 41.25C21.324 41.0711 21.3925 40.8925 21.5227 40.7619C21.7846 40.5074 22.2377 40.5074 22.4922 40.7619C22.6231 40.8925 22.699 41.0711 22.699 41.25C22.699 41.4286 22.6231 41.6075 22.4922 41.7381C22.3686 41.8616 22.19 41.9375 22.0115 41.9375Z" fill="#FFCD00"/>
<path d="M14.2286 38.7131C14.0501 38.7131 13.8708 38.6443 13.7472 38.5137C13.6163 38.3829 13.5411 38.2042 13.5411 38.0256C13.5411 37.8467 13.6163 37.6681 13.7472 37.5442C14.0017 37.2897 14.4622 37.283 14.7167 37.5442C14.847 37.668 14.9161 37.8467 14.9161 38.0256C14.9161 38.2042 14.8469 38.3828 14.7167 38.5137C14.5933 38.6444 14.414 38.7131 14.2286 38.7131Z" fill="#FFCD00"/>
<path d="M11.85 35.1448C11.664 35.1448 11.4854 35.0763 11.3619 34.9454C11.231 34.8147 11.1625 34.6362 11.1625 34.4572C11.1625 34.2787 11.231 34.0997 11.3619 33.9762C11.6163 33.715 12.0769 33.715 12.3313 33.9762C12.4616 34.0997 12.5374 34.2787 12.5374 34.4572C12.5374 34.6362 12.4615 34.8147 12.3313 34.9454C12.2071 35.0763 12.0286 35.1448 11.85 35.1448Z" fill="#FFCD00"/>
<path d="M26.2184 41.0986C26.0398 41.0986 25.8612 41.0297 25.7303 40.8992C25.6067 40.7756 25.5309 40.5967 25.5309 40.4111C25.5309 40.2325 25.6068 40.0536 25.7303 39.923C25.9914 39.6685 26.4453 39.6685 26.7064 39.923C26.8306 40.0536 26.9058 40.2325 26.9058 40.4111C26.9058 40.59 26.8306 40.7686 26.7064 40.8992C26.5762 41.0297 26.3976 41.0986 26.2184 41.0986Z" fill="#FFCD00"/>
<path d="M11.85 26.7299C11.664 26.7299 11.4854 26.6544 11.3619 26.5235C11.231 26.3999 11.1625 26.221 11.1625 26.0424C11.1625 25.8568 11.231 25.6779 11.3619 25.5543C11.6163 25.2998 12.0769 25.2998 12.3313 25.5543C12.4616 25.6849 12.5374 25.8568 12.5374 26.0424C12.5374 26.221 12.4615 26.3999 12.3313 26.5235C12.2071 26.6544 12.0286 26.7299 11.85 26.7299Z" fill="#FFCD00"/>
<path d="M17.7965 41.0986C17.6179 41.0986 17.4394 41.0297 17.3158 40.8992C17.1849 40.7686 17.109 40.5967 17.109 40.4111C17.109 40.2325 17.1849 40.0536 17.3158 39.9297C17.5695 39.6685 18.0308 39.6685 18.2845 39.9297C18.4154 40.0535 18.4839 40.2324 18.4839 40.4111C18.4839 40.5967 18.4154 40.7686 18.2845 40.8992C18.1611 41.0297 17.9825 41.0986 17.7965 41.0986Z" fill="#FFCD00"/>
<path d="M11.231 33.1305C11.0524 33.1305 10.8738 33.0546 10.7428 32.9312C10.6193 32.8005 10.5435 32.6216 10.5435 32.443C10.5435 32.2641 10.6193 32.0855 10.7428 31.9549C11.004 31.7005 11.4578 31.7005 11.719 31.9549C11.8432 32.0855 11.9184 32.2641 11.9184 32.443C11.9184 32.6216 11.8432 32.8005 11.719 32.9312C11.5888 33.0547 11.4095 33.1305 11.231 33.1305Z" fill="#FFCD00"/>
<path d="M24.2041 41.7172C24.0188 41.7172 23.8396 41.6417 23.716 41.5179C23.5851 41.3872 23.5166 41.2087 23.5166 41.0297C23.5166 40.8512 23.5851 40.6722 23.716 40.5416C23.9704 40.2872 24.431 40.2872 24.6854 40.5416C24.8157 40.6722 24.8915 40.8512 24.8915 41.0297C24.8915 41.2087 24.8156 41.3872 24.6854 41.5179C24.562 41.6417 24.3828 41.7172 24.2041 41.7172Z" fill="#FFCD00"/>
<path d="M12.8395 24.8668C12.6542 24.8668 12.4756 24.7912 12.3514 24.6674C12.2211 24.5368 12.152 24.3579 12.152 24.1793C12.152 23.9937 12.2212 23.8218 12.3514 23.6912C12.6058 23.4367 13.0664 23.4367 13.3208 23.6912C13.4517 23.8218 13.5269 24.0004 13.5269 24.1793C13.5269 24.3579 13.4517 24.5368 13.3208 24.6674C13.1973 24.7912 13.0187 24.8668 12.8395 24.8668Z" fill="#FFCD00"/>
<path d="M15.9407 40.1087C15.7547 40.1087 15.5761 40.0331 15.4525 39.9093C15.3217 39.7787 15.2532 39.6068 15.2532 39.4212C15.2532 39.2422 15.3217 39.0637 15.4525 38.9397C15.7063 38.6786 16.1675 38.6786 16.4213 38.9397C16.5522 39.0636 16.6281 39.2422 16.6281 39.4212C16.6281 39.6068 16.5522 39.7787 16.4213 39.9093C16.2979 40.0331 16.1193 40.1087 15.9407 40.1087Z" fill="#FFCD00"/>
<path d="M12.8879 37.0904C12.7094 37.0904 12.5308 37.0149 12.3998 36.8844C12.2762 36.7605 12.2004 36.5819 12.2004 36.403C12.2004 36.2173 12.2763 36.0455 12.3998 35.9148C12.661 35.6604 13.1215 35.6604 13.376 35.9148C13.5069 36.0455 13.5754 36.2173 13.5754 36.403C13.5754 36.5819 13.5069 36.7605 13.376 36.8844C13.2458 37.0149 13.0739 37.0904 12.8879 37.0904Z" fill="#FFCD00"/>
<path d="M28.1641 40.0536C27.9788 40.0536 27.8002 39.9847 27.6759 39.8542C27.5457 39.7306 27.4766 39.5517 27.4766 39.3661C27.4766 39.1875 27.5457 39.0086 27.6759 38.885C27.9237 38.6305 28.3909 38.6235 28.6454 38.885C28.7763 39.0086 28.8515 39.1875 28.8515 39.3661C28.8515 39.5517 28.7763 39.7306 28.6454 39.8542C28.5219 39.9847 28.3433 40.0536 28.1641 40.0536Z" fill="#FFCD00"/>
<path d="M11.2101 28.8404C11.0315 28.8404 10.8529 28.7649 10.722 28.6344C10.5984 28.5105 10.5226 28.3319 10.5226 28.1529C10.5226 27.9673 10.5985 27.7955 10.722 27.6648C10.9764 27.4104 11.4443 27.4104 11.6988 27.6648C11.8291 27.7955 11.8976 27.9673 11.8976 28.1529C11.8976 28.3319 11.8291 28.5104 11.6988 28.6344C11.5679 28.7649 11.3893 28.8404 11.2101 28.8404Z" fill="#FFCD00"/>
<path d="M19.9074 41.7381C19.7288 41.7381 19.5502 41.6622 19.4259 41.5317C19.2957 41.4081 19.2266 41.2292 19.2266 41.0506C19.2266 40.865 19.2957 40.6861 19.4259 40.5625C19.6804 40.308 20.1409 40.308 20.3954 40.5625C20.5263 40.6861 20.5948 40.865 20.5948 41.0506C20.5948 41.2292 20.5263 41.4081 20.3954 41.5317C20.2719 41.6622 20.0933 41.7381 19.9074 41.7381Z" fill="#FFCD00"/>
<path d="M13.7466 21.9872C13.6162 22.1108 13.5411 22.2891 13.5411 22.4743C13.5411 22.6528 13.6163 22.8318 13.7472 22.9553C13.8708 23.086 14.05 23.1618 14.2286 23.1618C14.4134 23.1618 14.5848 23.0861 14.7156 22.9561L13.7466 21.9872Z" fill="#FFCD00"/>
<path d="M29.7867 38.7131C29.9649 38.7131 30.143 38.6445 30.2738 38.5144L29.3017 37.5422C29.3009 37.5431 29.2996 37.5434 29.2986 37.5442C29.175 37.668 29.0992 37.8467 29.0992 38.0256C29.0992 38.2109 29.1751 38.3898 29.2986 38.5138C29.4289 38.6444 29.6082 38.7131 29.7867 38.7131Z" fill="#FFCD00"/>
</svg>
