<svg width="18" height="26" viewBox="0 0 18 26" fill="none" xmlns="http://www.w3.org/2000/svg">
<path d="M1.21974 4.37356C2.76973 1.69867 5.52284 0.0644729 8.58437 0.00202024C8.71506 -0.000673412 8.8466 -0.000673412 8.97734 0.00202024C12.0388 0.0644729 14.7919 1.69867 16.342 4.37356C17.9263 7.10771 17.9697 10.392 16.458 13.159L10.1247 24.751C10.1219 24.7561 10.1191 24.7613 10.1161 24.7664C9.83747 25.2507 9.33829 25.5398 8.78076 25.5398C8.22327 25.5398 7.7241 25.2506 7.44551 24.7664C7.44256 24.7613 7.43972 24.7561 7.43688 24.751L1.10366 13.159C-0.40797 10.392 -0.364622 7.10771 1.21974 4.37356ZM8.78086 11.5727C10.7612 11.5727 12.3724 9.96158 12.3724 7.9812C12.3724 6.00082 10.7612 4.38967 8.78086 4.38967C6.80048 4.38967 5.18933 6.00082 5.18933 7.9812C5.18933 9.96158 6.80043 11.5727 8.78086 11.5727Z" fill="#A7B0D9"/>
</svg>
