<svg width="14" height="18" viewBox="0 0 14 18" fill="none" xmlns="http://www.w3.org/2000/svg">
<path d="M0.375011 6.75L1.50001 6.75L1.50001 5.24999C1.50001 2.35512 3.85509 8.43185e-07 6.75 5.90104e-07C9.64491 3.37023e-07 12 2.35512 12 5.24999L12 6.75L13.125 6.75C13.3323 6.75 13.5 6.91773 13.5 7.12501L13.5 16.5C13.5 17.3273 12.8273 18 12 18L1.49998 18C0.672715 18 -3.92549e-07 17.3273 -4.64874e-07 16.5L-1.28446e-06 7.12501C-1.30258e-06 6.91773 0.167729 6.75 0.375011 6.75ZM5.62718 14.5836C5.61547 14.6894 5.6495 14.7956 5.72055 14.8751C5.79161 14.9546 5.89342 15 5.99998 15L7.49999 15C7.60655 15 7.70836 14.9546 7.77941 14.8751C7.85046 14.7957 7.88453 14.6895 7.87279 14.5836L7.63622 12.4563C8.02037 12.1769 8.24998 11.7349 8.24998 11.25C8.24998 10.4227 7.57726 9.74999 6.74996 9.74999C5.92267 9.74999 5.24995 10.4227 5.24995 11.25C5.24995 11.7349 5.47956 12.1769 5.86371 12.4563L5.62718 14.5836ZM3.75001 6.75L9.74999 6.75L9.74999 5.24999C9.74999 3.59582 8.40417 2.25 6.75 2.25C5.09583 2.25 3.75001 3.59582 3.75001 5.24999L3.75001 6.75Z" fill="#FF5160"/>
</svg>
