<svg width="40" height="40" viewBox="0 0 40 40" fill="none" xmlns="http://www.w3.org/2000/svg">
<path d="M34.0625 4.76562C31.4773 4.76562 29.375 6.86789 29.375 9.45312C29.375 12.0384 31.4773 14.1406 34.0625 14.1406C36.6477 14.1406 38.75 12.0384 38.75 9.45312C38.75 6.86789 36.6477 4.76562 34.0625 4.76562Z" fill="#2BB2FF"/>
<path d="M10.625 30.5469H1.25C0.602266 30.5469 0 31.071 0 31.7188V38.8281C0 39.4759 0.602266 40 1.25 40H10.625C11.2727 40 11.7969 39.4759 11.7969 38.8281V31.7188C11.7969 31.071 11.2727 30.5469 10.625 30.5469Z" fill="#2BB2FF"/>
<path d="M24.6875 21.1719H15.3125C14.6648 21.1719 14.1406 21.696 14.1406 22.3438V38.8281C14.1406 39.4759 14.6648 40 15.3125 40H24.6875C25.3352 40 25.8594 39.4759 25.8594 38.8281V22.3438C25.8594 21.696 25.3352 21.1719 24.6875 21.1719Z" fill="#2BB2FF"/>
<path d="M38.8281 25.8594H29.375C28.7273 25.8594 28.2031 26.3835 28.2031 27.0312V38.8281C28.2031 39.4759 28.7273 40 29.375 40H38.8281C39.4759 40 40 39.4759 40 38.8281V27.0312C40 26.3835 39.4759 25.8594 38.8281 25.8594Z" fill="#2BB2FF"/>
<path d="M34.0625 14.1406C30.8318 14.1406 28.2031 16.7693 28.2031 20V22.3438C28.2031 22.9915 28.7273 23.5156 29.375 23.5156H38.8281C39.4759 23.5156 40 22.9915 40 22.3438V20C40 16.7693 37.2932 14.1406 34.0625 14.1406Z" fill="#2BB2FF"/>
<path d="M20 0C17.4148 0 15.3125 2.18039 15.3125 4.76562C15.3125 7.35086 17.4148 9.45312 20 9.45312C22.5852 9.45312 24.6875 7.35086 24.6875 4.76562C24.6875 2.18039 22.5852 0 20 0Z" fill="#2BB2FF"/>
<path d="M20 9.45312C16.7693 9.45312 14.1406 12.0818 14.1406 15.3125V17.6562C14.1406 18.304 14.6648 18.8281 15.3125 18.8281H24.6875C25.3352 18.8281 25.8594 18.304 25.8594 17.6562V15.3125C25.8594 12.0818 23.2307 9.45312 20 9.45312Z" fill="#2BB2FF"/>
<path d="M5.9375 9.45312C3.35227 9.45312 1.25 11.5554 1.25 14.1406C1.25 16.7259 3.35227 18.8281 5.9375 18.8281C8.52273 18.8281 10.625 16.7259 10.625 14.1406C10.625 11.5554 8.52273 9.45312 5.9375 9.45312Z" fill="#2BB2FF"/>
<path d="M5.9375 18.8281C2.7068 18.8281 0 21.4568 0 24.6875V27.0312C0 27.679 0.602266 28.2031 1.25 28.2031H10.625C11.2727 28.2031 11.7969 27.679 11.7969 27.0312V24.6875C11.7969 21.4568 9.1682 18.8281 5.9375 18.8281Z" fill="#2BB2FF"/>
</svg>
